{
  "accessors": [
    {
      "bufferView": 2,
      "componentType": 5126,
      "count": 12020,
      "max": [
        0.80282998085021973,
        1.3153300285339355,
        2.0525000095367432
      ],
      "min": [
        -1.3118699789047241,
        -1.439210057258606,
        0.18327000737190247
      ],
      "type": "VEC3"
    },
    {
      "bufferView": 2,
      "byteOffset": 144240,
      "componentType": 5126,
      "count": 12020,
      "max": [
        0.99983775615692139,
        0.99993628263473511,
        0.99950402975082397
      ],
      "min": [
        -0.99997878074645996,
        -0.99986916780471802,
        -0.99989950656890869
      ],
      "type": "VEC3"
    },
    {
      "bufferView": 1,
      "componentType": 5126,
      "count": 12020,
      "max": [
        1.0006699562072754,
        1.0001300573348999
      ],
      "min": [
        -0.0019499999471008778,
        0
      ],
      "type": "VEC2"
    },
    {
      "bufferView": 0,
      "componentType": 5125,
      "count": 18030,
      "max": [
        12019
      ],
      "min": [
        0
      ],
      "type": "SCALAR"
    },
    {
      "bufferView": 2,
      "byteOffset": 288480,
      "componentType": 5126,
      "count": 18717,
      "max": [
        0.6457899808883667,
        1.1660900115966797,
        1.9106500148773193
      ],
      "min": [
        -1.131909966468811,
        -1.2874499559402466,
        0
      ],
      "type": "VEC3"
    },
    {
      "bufferView": 2,
      "byteOffset": 513084,
      "componentType": 5126,
      "count": 18717,
      "max": [
        1,
        0.99992716312408447,
        0.99930250644683838
      ],
      "min": [
        -0.99997878074645996,
        -0.99992716312408447,
        -0.99930250644683838
      ],
      "type": "VEC3"
    },
    {
      "bufferView": 1,
      "byteOffset": 96160,
      "componentType": 5126,
      "count": 18717,
      "max": [
        2,
        112.55133056640625
      ],
      "min": [
        0,
        0
      ],
      "type": "VEC2"
    },
    {
      "bufferView": 0,
      "byteOffset": 72120,
      "componentType": 5125,
      "count": 96276,
      "max": [
        18716
      ],
      "min": [
        0
      ],
      "type": "SCALAR"
    }
  ],
  "asset": {
    "extras": {
      "author": "RosticOstafi (https://sketchfab.com/RosticOstafi)",
      "license": "CC-BY-4.0 (http://creativecommons.org/licenses/by/4.0/)",
      "source": "https://sketchfab.com/3d-models/tree-sakura-4a201fe7f1a548fa9a0b32388be75499",
      "title": "Tree Sakura"
    },
    "generator": "Sketchfab-8.20.0",
    "version": "2.0"
  },
  "bufferViews": [
    {
      "buffer": 0,
      "byteLength": 457224,
      "byteOffset": 0,
      "name": "floatBufferViews",
      "target": 34963
    },
    {
      "buffer": 0,
      "byteLength": 245896,
      "byteOffset": 457224,
      "byteStride": 8,
      "name": "floatBufferViews",
      "target": 34962
    },
    {
      "buffer": 0,
      "byteLength": 737688,
      "byteOffset": 703120,
      "byteStride": 12,
      "name": "floatBufferViews",
      "target": 34962
    }
  ],
  "buffers": [
    {
      "byteLength": 1440808,
      "uri": "scene.bin"
    }
  ],
  "images": [
    {
      "uri": "textures/DL2X2_1_baseColor.png"
    },
    {
      "uri": "textures/DL2X2_1_metallicRoughness.png"
    },
    {
      "uri": "textures/Trank_bark_baseColor.jpeg"
    },
    {
      "uri": "textures/Trank_bark_metallicRoughness.png"
    }
  ],
  "materials": [
    {
      "alphaMode": "BLEND",
      "doubleSided": true,
      "name": "DL2X2_1",
      "pbrMetallicRoughness": {
        "baseColorFactor": [
          1,
          1,
          1,
          1
        ],
        "baseColorTexture": {
          "index": 0,
          "texCoord": 0
        },
        "metallicFactor": 1,
        "metallicRoughnessTexture": {
          "index": 1,
          "texCoord": 0
        },
        "roughnessFactor": 0.59999999999999998
      }
    },
    {
      "doubleSided": true,
      "name": "Trank_bark",
      "pbrMetallicRoughness": {
        "baseColorFactor": [
          0.32488567073170732,
          0.32488567073170732,
          0.32488567073170732,
          1
        ],
        "baseColorTexture": {
          "index": 2,
          "texCoord": 0
        },
        "metallicFactor": 1,
        "metallicRoughnessTexture": {
          "index": 3,
          "texCoord": 0
        },
        "roughnessFactor": 1
      }
    }
  ],
  "meshes": [
    {
      "primitives": [
        {
          "attributes": {
            "NORMAL": 1,
            "POSITION": 0,
            "TEXCOORD_0": 2
          },
          "indices": 3,
          "material": 0,
          "mode": 4
        }
      ]
    },
    {
      "primitives": [
        {
          "attributes": {
            "NORMAL": 5,
            "POSITION": 4,
            "TEXCOORD_0": 6
          },
          "indices": 7,
          "material": 1,
          "mode": 4
        }
      ]
    }
  ],
  "nodes": [
    {
      "children": [
        1
      ],
      "name": "RootNode (gltf orientation matrix)",
      "rotation": [
        -0.70710678118654746,
        -0,
        -0,
        0.70710678118654757
      ]
    },
    {
      "children": [
        2
      ],
      "name": "RootNode (model correction matrix)"
    },
    {
      "children": [
        3,
        4
      ],
      "name": "Tree.obj.cleaner.materialmerger.gles"
    },
    {
      "mesh": 0,
      "name": ""
    },
    {
      "mesh": 1,
      "name": ""
    }
  ],
  "samplers": [
    {
      "magFilter": 9729,
      "minFilter": 9987,
      "wrapS": 10497,
      "wrapT": 10497
    }
  ],
  "scene": 0,
  "scenes": [
    {
      "name": "OSG_Scene",
      "nodes": [
        0
      ]
    }
  ],
  "textures": [
    {
      "sampler": 0,
      "source": 0
    },
    {
      "sampler": 0,
      "source": 1
    },
    {
      "sampler": 0,
      "source": 2
    },
    {
      "sampler": 0,
      "source": 3
    }
  ]
}

